<svg xmlns="http://www.w3.org/2000/svg" width="900" height="300" viewBox="0 0 900 300">
  <defs>
    <linearGradient id="bg" x1="0" y1="0" x2="1" y2="1">
      <stop offset="0%" stop-color="#1a5984"/>
      <stop offset="100%" stop-color="#3088be"/>
    </linearGradient>
    <circle id="n" r="1.8" fill="rgba(255,255,255,0.12)"/>
    <!-- Toggle logo as a symbol with its own viewBox -->
    <symbol id="toggle-logo" viewBox="0 0 497 288">
      <g transform="translate(-342.04184,-269.73869)">
        <path d="m 701.35684,285.09368 h -221.42 a 128.41,128.41 0 0 0 0,256.81 h 221.42 a 128.41,128.41 0 0 0 0,-256.81 z m 0,240.75 h -221.42 a 112.35,112.35 0 0 1 0,-224.69 h 221.42 a 112.35,112.35 0 0 1 0,224.69 z"
              style="fill:#fcfeff;fill-opacity:1"/>
        <g transform="translate(-7.0439853,-0.964995)">
          <g>
            <circle cx="700.97687" cy="414.90369" r="98.309998" style="fill:#fbae47"/>
            <path d="m 700.97684,313.39368 a 101.07,101.07 0 1 0 101.08,101.07 101.07,101.07 0 0 0 -101.08,-101.07 z m 0,195 a 93.94,93.94 0 1 1 93.94,-93.94 94,94 0 0 1 -93.94,93.95 z"
                  style="fill:#fafcfd;fill-opacity:1"/>
          </g>
          <g>
            <circle cx="707.91687" cy="415.52368" r="5.8899999" style="fill:#007ba9"/>
            <path d="m 661.85684,393.21368 a 2.23,2.23 0 0 0 -2.19,-2.2 h -28.84 a 2.23,2.23 0 0 0 -2.2,2.2 2.18,2.18 0 0 0 2.2,2.13 h 12 v 35.13 a 2.37,2.37 0 1 0 4.74,0 v -35.15 h 12.05 a 2.18,2.18 0 0 0 2.24,-2.11 z" style="fill:#007ba9"/>
            <path d="m 671.41684,401.22368 a 15.88,15.88 0 0 0 -16,16 v 0.1 a 15.71,15.71 0 0 0 15.9,15.9 15.93,15.93 0 0 0 16.08,-16 v -0.12 a 15.76,15.76 0 0 0 -15.98,-15.88 z m 11.27,16.1 c 0,6.47 -4.62,11.81 -11.27,11.81 -6.47,0 -11.33,-5.34 -11.33,-11.93 v -0.12 c 0,-6.47 4.56,-11.87 11.21,-11.87 6.47,0 11.39,5.4 11.39,12 z" style="fill:#007ba9"/>
            <path d="m 721.09684,401.57368 a 2.27,2.27 0 0 0 -2.26,2.32 v 3.5 a 14.38,14.38 0 0 0 -12,-6.17 14.7,14.7 0 0 0 -9.91,3.84 v -0.22 c 0,-7.18 4.39,-10.92 11.15,-10.92 a 19.4,19.4 0 0 1 10.86,3.32 1.83,1.83 0 0 0 1,0.3 2.18,2.18 0 0 0 2.08,-2 2.13,2.13 0 0 0 -1.19,-1.9 24.07,24.07 0 0 0 -12.82,-3.62 c -4.86,0 -9,1.37 -11.69,4.1 -2.49,2.49 -3.91,6.11 -3.91,10.86 v 23.34 a 2.32,2.32 0 0 0 2.31,2.31 2.27,2.27 0 0 0 2.26,-2.31 v -1.9 a 14.77,14.77 0 0 0 9.85,3.76 c 5.63,0 9.37,-2.91 12,-6.47 v 3.61 c 0,7.18 -4.39,10.92 -11.15,10.92 a 19.33,19.33 0 0 1 -10.86,-3.33 1.85,1.85 0 0 0 -1,-0.29 2.17,2.17 0 0 0 -2.08,2 2.12,2.12 0 0 0 1.19,1.9 24,24 0 0 0 12.81,3.62 c 4.87,0 9,-1.36 11.69,-4.09 2.5,-2.49 3.92,-6.11 3.92,-10.86 v -23.3 a 2.32,2.32 0 0 0 -2.25,-2.32 z m -2.08,14.19 c 0,6.17 -5.46,10.38 -11.27,10.38 a 10.39,10.39 0 0 1 -10.63,-10.44 v -0.12 c 0,-6.29 4.81,-10.33 10.63,-10.33 5.82,0 11.27,4.1 11.27,10.39 z" style="fill:#007ba9"/>
            <path d="m 732.53684,388.94368 a 2.3,2.3 0 0 0 -2.26,2.31 v 39.28 a 2.28,2.28 0 0 0 2.31,2.32 2.23,2.23 0 0 0 2.26,-2.32 v -39.28 a 2.31,2.31 0 0 0 -2.31,-2.31 z" style="fill:#007ba9"/>
            <path d="m 771.04684,416.77368 c 0,-8.13 -5.16,-15.55 -14.24,-15.55 -8.48,0 -14.71,7.12 -14.71,16 v 0.1 c 0,9.49 6.88,16 15.31,16 a 15.6,15.6 0 0 0 11.57,-4.63 2,2 0 1 0 -2.61,-2.9 12.59,12.59 0 0 1 -8.83,3.53 c -5.46,0 -10.15,-3.74 -10.8,-10.39 h 22.19 a 2.12,2.12 0 0 0 2.12,-2.16 z m -24.32,-1.25 c 0.59,-6 4.62,-10.44 10,-10.44 6.11,0 9.31,4.86 9.79,10.44 z" style="fill:#007ba9"/>
          </g>
        </g>
      </g>
    </symbol>
  </defs>
  <rect width="900" height="300" fill="url(#bg)"/>
  <!-- mesh background -->
  <g stroke="rgba(255,255,255,0.05)" stroke-width="0.7" fill="none">
    <path d="M70 40L210 65M210 65L370 35M370 35L530 60M530 60L690 40M690 40L830 65
             M50 130L190 150M190 150L340 120M340 120L500 145M500 145L660 125M660 125L810 150
             M80 220L230 205M230 205L390 225M390 225L550 210M550 210L720 228M720 228L850 210
             M90 280L250 268M250 268L410 285M410 285L570 270M570 270L740 283M740 283L860 272
             M70 40L50 130M210 65L190 150M370 35L340 120M530 60L500 145M690 40L660 125M830 65L810 150
             M50 130L80 220M190 150L230 205M340 120L390 225M500 145L550 210M660 125L720 228M810 150L850 210
             M80 220L90 280M230 205L250 268M390 225L410 285M550 210L570 270M720 228L740 283M850 210L860 272"/>
  </g>
  <use href="#n" x="70" y="40"/><use href="#n" x="210" y="65"/><use href="#n" x="370" y="35"/>
  <use href="#n" x="530" y="60"/><use href="#n" x="690" y="40"/><use href="#n" x="830" y="65"/>
  <use href="#n" x="50" y="130"/><use href="#n" x="190" y="150"/><use href="#n" x="340" y="120"/>
  <use href="#n" x="500" y="145"/><use href="#n" x="660" y="125"/><use href="#n" x="810" y="150"/>
  <use href="#n" x="80" y="220"/><use href="#n" x="230" y="205"/><use href="#n" x="390" y="225"/>
  <use href="#n" x="550" y="210"/><use href="#n" x="720" y="228"/><use href="#n" x="850" y="210"/>
  <use href="#n" x="90" y="280"/><use href="#n" x="250" y="268"/><use href="#n" x="410" y="285"/>
  <use href="#n" x="570" y="270"/><use href="#n" x="740" y="283"/><use href="#n" x="860" y="272"/>
  <!-- Toggle logo centered: 250px wide, aspect 497:288 → height=145 -->
  <use href="#toggle-logo" x="325" y="30" width="250" height="145"/>
  <!-- motto -->
  <text x="450" y="220" text-anchor="middle" fill="rgba(240,255,255,0.9)" font-family="sans-serif" font-size="18" font-weight="300" letter-spacing="0.5">Have you tried turning it off and on again?</text>
  <!-- toggle.cz -->
  <text x="450" y="260" text-anchor="middle" fill="rgba(240,255,255,0.4)" font-family="sans-serif" font-size="13" font-weight="300">toggle.cz</text>
</svg>
