<svg xmlns="http://www.w3.org/2000/svg" width="900" height="200" viewBox="0 0 900 200">
  <defs>
    <linearGradient id="bg" x1="0" y1="0" x2="1" y2="1">
      <stop offset="0%" stop-color="#1a5984"/>
      <stop offset="100%" stop-color="#3088be"/>
    </linearGradient>
    <circle id="n" r="1.5" fill="rgba(255,255,255,0.15)"/>
  </defs>
  <rect width="900" height="200" fill="url(#bg)"/>
  <!-- mesh -->
  <g stroke="rgba(255,255,255,0.06)" stroke-width="0.8" fill="none">
    <path d="M80 30L220 55M220 55L380 25M380 25L520 50M520 50L680 30M680 30L820 55
             M60 100L200 120M200 120L350 90M350 90L500 115M500 115L650 95M650 95L800 120
             M90 170L240 155M240 155L400 175M400 175L550 160M550 160L710 178M710 178L840 160
             M80 30L60 100M220 55L200 120M380 25L350 90M520 50L500 115M680 30L650 95M820 55L800 120
             M60 100L90 170M200 120L240 155M350 90L400 175M500 115L550 160M650 95L710 178M800 120L840 160"/>
  </g>
  <use href="#n" x="80" y="30"/><use href="#n" x="220" y="55"/><use href="#n" x="380" y="25"/>
  <use href="#n" x="520" y="50"/><use href="#n" x="680" y="30"/><use href="#n" x="820" y="55"/>
  <use href="#n" x="60" y="100"/><use href="#n" x="200" y="120"/><use href="#n" x="350" y="90"/>
  <use href="#n" x="500" y="115"/><use href="#n" x="650" y="95"/><use href="#n" x="800" y="120"/>
  <use href="#n" x="90" y="170"/><use href="#n" x="240" y="155"/><use href="#n" x="400" y="175"/>
  <use href="#n" x="550" y="160"/><use href="#n" x="710" y="178"/><use href="#n" x="840" y="160"/>
  <!-- toggle switch -->
  <g transform="translate(340,68)">
    <rect x="0" y="0" width="100" height="50" rx="25" fill="none" stroke="#fcfeff" stroke-width="3"/>
    <circle cx="72" cy="25" r="18" fill="#fbae47"/>
    <circle cx="72" cy="25" r="20" fill="none" stroke="rgba(250,252,253,0.7)" stroke-width="2"/>
  </g>
  <!-- text -->
  <text x="450" y="155" text-anchor="middle" fill="rgba(240,255,255,0.85)" font-family="sans-serif" font-size="14" font-weight="300" letter-spacing="1">IT infrastructure · security · automation</text>
</svg>
